# xmcd CD database file generated by OrangeCD 5.2
#
# Track frame offsets:
#	150
#	25727
#	39886
#	57757
#	78099
#	105172
#	130368
#	148866
#	159422
#
# Disc length: 2384 seconds
#
# Revision: 0
# Processed by: cddbd v1.5.1PL0 Copyright (c) Steve Scherf et al.
# Submitted via: OrangeCD 5.2
#
DISCID=63094e09
DTITLE=Zydeco Jump - Dig It Up
DYEAR=1900
DGENRE=Country
TTITLE0=Dig It Up!
TTITLE1=The Clock Struck Midnight
TTITLE2=Beguiled
TTITLE3=New King In Town
TTITLE4=Already Gone
TTITLE5=I Want To Dance With You
TTITLE6=Twistin' The Zydeco
TTITLE7=Ride 'em Cowboy
TTITLE8=Goin' Home
EXTD=
EXTT0=
EXTT1=
EXTT2=
EXTT3=
EXTT4=
EXTT5=
EXTT6=
EXTT7=
EXTT8=
PLAYORDER=
